<svg width="26" height="26" viewBox="0 0 26 26" fill="none" xmlns="http://www.w3.org/2000/svg">
<path d="M22.9176 11.0677C22.692 11.0227 22.4812 10.9218 22.3047 10.7742C22.1282 10.6266 21.9915 10.4371 21.9072 10.223L21.9041 10.2136L21.2697 8.66983C21.1725 8.45886 21.1312 8.22637 21.15 7.99482C21.1688 7.76326 21.247 7.54047 21.377 7.34795L21.3739 7.35316L22.4031 5.98024C22.5287 5.8005 22.5917 5.58445 22.5825 5.36536C22.5733 5.14628 22.4923 4.93629 22.352 4.76774L22.3531 4.76983L21.226 3.63962C21.0562 3.50002 20.8453 3.42003 20.6257 3.41193C20.4061 3.40384 20.1899 3.4681 20.0104 3.59483L20.0135 3.59274L18.6426 4.62191C18.4494 4.75185 18.2258 4.82955 17.9936 4.84743C17.7614 4.86532 17.5285 4.8228 17.3176 4.72399L17.326 4.72712L15.7822 4.09274C15.5668 4.01126 15.3756 3.87651 15.2264 3.70109C15.0772 3.52567 14.9749 3.31529 14.9291 3.08962L14.9281 3.08128L14.6895 1.38233C14.6502 1.16645 14.5447 0.968122 14.3878 0.81474C14.2309 0.661358 14.0302 0.560493 13.8135 0.526076L13.8072 0.525035C13.8072 0.525035 13.5364 0.498993 12.9989 0.498993C12.4614 0.498993 12.1979 0.526076 12.1979 0.526076C11.9799 0.557655 11.7772 0.656391 11.6179 0.808549C11.4586 0.960706 11.3508 1.15872 11.3093 1.37503L11.3083 1.38128L11.0656 3.07816C11.0207 3.30362 10.9198 3.51416 10.7721 3.69037C10.6245 3.86659 10.4349 4.00281 10.2208 4.08649L10.2114 4.08962L8.66764 4.72399C8.45656 4.82102 8.22404 4.86202 7.99251 4.84304C7.76097 4.82407 7.53823 4.74576 7.34577 4.61566L7.35098 4.61878L5.97806 3.58962C5.79836 3.46383 5.58239 3.4004 5.36321 3.40906C5.14404 3.41771 4.93374 3.49797 4.76452 3.63753L4.7666 3.63649L3.64264 4.76878C3.50257 4.93785 3.42217 5.14839 3.41388 5.36778C3.40559 5.58717 3.46989 5.80318 3.59681 5.98233L3.59473 5.9792L4.62389 7.35212C4.75268 7.54584 4.82976 7.76928 4.84781 8.0012C4.86586 8.23312 4.82428 8.46581 4.72702 8.67712L4.73014 8.66878L4.09368 10.2125C3.92493 10.649 3.54993 10.973 3.09056 11.0657L3.08223 11.0667L1.38327 11.3063C1.16716 11.3471 0.969125 11.4542 0.816627 11.6127C0.66413 11.7711 0.564733 11.9731 0.532227 12.1907L0.531185 12.1969C0.531185 12.1969 0.500977 12.4636 0.500977 12.998C0.500977 13.5323 0.529102 13.8 0.529102 13.8C0.595768 14.25 0.938477 14.6052 1.37702 14.6875L1.38327 14.6886L3.08014 14.9302C3.54785 15.025 3.92389 15.3469 4.09056 15.775L4.09368 15.7844L4.73014 17.3282C4.82772 17.5392 4.86893 17.7718 4.84976 18.0035C4.8306 18.2352 4.7517 18.4579 4.62077 18.65L4.62389 18.6448L3.59473 20.0177C3.46927 20.157 3.38913 20.3311 3.36495 20.517C3.34076 20.7028 3.37367 20.8916 3.45931 21.0584L3.45723 21.0532C3.63952 21.2792 4.16243 21.8365 4.16348 21.8386L4.5541 22.1969C4.7666 22.3927 5.63952 22.6646 5.98327 22.4084L7.35514 21.3792C7.54829 21.2489 7.77199 21.1711 8.00428 21.1534C8.23657 21.1357 8.46948 21.1787 8.68014 21.2782L8.67181 21.275L10.2156 21.9094C10.6531 22.0771 10.977 22.4532 11.0687 22.9125L11.0697 22.9209L11.3083 24.6146C11.3916 25.0604 11.7458 25.4032 12.1895 25.4709L12.1958 25.4719C12.1958 25.4719 12.4635 25.4979 12.9999 25.4979C13.5364 25.4979 13.802 25.4698 13.802 25.4698C14.2499 25.4 14.602 25.0573 14.6833 24.6198L14.6843 24.6136L14.9281 22.9167C15.0218 22.449 15.3447 22.073 15.7729 21.9084L15.7822 21.9052L17.326 21.2688C17.537 21.1712 17.7697 21.13 18.0013 21.1492C18.233 21.1683 18.4558 21.2472 18.6479 21.3782L18.6426 21.375L20.0156 22.4042C20.1956 22.53 20.412 22.5931 20.6315 22.5839C20.8509 22.5747 21.0613 22.4936 21.2301 22.3532L21.2281 22.3542L22.3551 21.225C22.4946 21.0553 22.5746 20.8446 22.5831 20.6251C22.5915 20.4056 22.528 20.1894 22.402 20.0094L22.4041 20.0125L21.3749 18.6396C21.226 18.4171 21.1469 18.1553 21.1479 17.8875C21.1479 17.6823 21.1926 17.4886 21.2739 17.3146L21.2708 17.323L21.9051 15.7792C22.0749 15.3417 22.451 15.0188 22.9104 14.9261L22.9187 14.925L24.6135 14.6834C25.0593 14.6 25.4031 14.2459 25.4697 13.8021L25.4708 13.7959C25.4708 13.7959 25.4989 13.5365 25.4989 12.999C25.4989 12.4615 25.4708 12.1969 25.4708 12.1969C25.4387 11.9787 25.3393 11.776 25.1866 11.617C25.0339 11.4579 24.8354 11.3504 24.6187 11.3094L24.6124 11.3084L22.9176 11.0677ZM12.9979 16.125C12.3799 16.1248 11.7759 15.9414 11.2622 15.598C10.7485 15.2546 10.3481 14.7666 10.1117 14.1957C9.87524 13.6248 9.81339 12.9966 9.93391 12.3905C10.0544 11.7844 10.3519 11.2277 10.7888 10.7907C11.2257 10.3537 11.7823 10.056 12.3883 9.93526C12.9944 9.81453 13.6226 9.87618 14.1936 10.1124C14.7646 10.3486 15.2527 10.7489 15.5963 11.2625C15.9399 11.7761 16.1235 12.38 16.1239 12.998V12.999C16.124 13.4095 16.0433 13.8161 15.8862 14.1954C15.7292 14.5748 15.4989 14.9194 15.2086 15.2097C14.9183 15.5001 14.5736 15.7303 14.1943 15.8874C13.815 16.0444 13.4084 16.1252 12.9979 16.125Z" fill="#F2A1A1"/>
</svg>
