<svg width="20" height="19" viewBox="0 0 20 19" fill="none" xmlns="http://www.w3.org/2000/svg">
<path fill-rule="evenodd" clip-rule="evenodd" d="M10 0.25C4.6125 0.25 0 4.04125 0 9C0 11.53 1.2225 13.7812 3.12375 15.3562C3.10631 16.1331 2.881 16.891 2.47125 17.5513C2.38629 17.6884 2.33818 17.8452 2.33155 18.0064C2.32492 18.1676 2.36001 18.3278 2.43341 18.4714C2.50682 18.6151 2.61607 18.7374 2.75058 18.8265C2.88509 18.9156 3.04032 18.9685 3.20125 18.98C4.95309 19.1112 6.69513 18.6208 8.12125 17.595C8.73 17.6975 9.35875 17.75 10 17.75C15.3875 17.75 20 13.9587 20 9C20 4.04125 15.3875 0.25 10 0.25ZM10 10.25C10.3315 10.25 10.6495 10.1183 10.8839 9.88388C11.1183 9.64946 11.25 9.33152 11.25 9C11.25 8.66848 11.1183 8.35054 10.8839 8.11612C10.6495 7.8817 10.3315 7.75 10 7.75C9.66848 7.75 9.35054 7.8817 9.11612 8.11612C8.8817 8.35054 8.75 8.66848 8.75 9C8.75 9.33152 8.8817 9.64946 9.11612 9.88388C9.35054 10.1183 9.66848 10.25 10 10.25ZM7.5 9C7.5 9.33152 7.3683 9.64946 7.13388 9.88388C6.89946 10.1183 6.58152 10.25 6.25 10.25C5.91848 10.25 5.60054 10.1183 5.36612 9.88388C5.1317 9.64946 5 9.33152 5 9C5 8.66848 5.1317 8.35054 5.36612 8.11612C5.60054 7.8817 5.91848 7.75 6.25 7.75C6.58152 7.75 6.89946 7.8817 7.13388 8.11612C7.3683 8.35054 7.5 8.66848 7.5 9ZM13.75 10.25C14.0815 10.25 14.3995 10.1183 14.6339 9.88388C14.8683 9.64946 15 9.33152 15 9C15 8.66848 14.8683 8.35054 14.6339 8.11612C14.3995 7.8817 14.0815 7.75 13.75 7.75C13.4185 7.75 13.1005 7.8817 12.8661 8.11612C12.6317 8.35054 12.5 8.66848 12.5 9C12.5 9.33152 12.6317 9.64946 12.8661 9.88388C13.1005 10.1183 13.4185 10.25 13.75 10.25Z" fill="#F2A1A1"/>
</svg>
