<svg width="22" height="22" viewBox="0 0 22 22" fill="none" xmlns="http://www.w3.org/2000/svg">
<path d="M1.62473 8.91668C1.32959 8.91668 1.08237 8.81251 0.883063 8.60418C0.683063 8.39584 0.600424 8.15279 0.635146 7.87501C0.756674 6.72918 1.05633 5.63091 1.5341 4.58022C2.01119 3.53022 2.64035 2.58855 3.4216 1.75522C3.61258 1.56425 3.85563 1.46876 4.15077 1.46876C4.44591 1.46876 4.69765 1.57293 4.90598 1.78126C5.09695 1.97223 5.19244 2.20661 5.19244 2.48439C5.19244 2.76216 5.09695 3.0139 4.90598 3.23959C4.29834 3.89932 3.80806 4.61529 3.43515 5.38751C3.06153 6.16043 2.82265 6.98959 2.71848 7.87501C2.68376 8.17015 2.56674 8.41737 2.36744 8.61668C2.16744 8.81668 1.91987 8.91668 1.62473 8.91668ZM20.3747 8.91668C20.097 8.91668 19.8539 8.81668 19.6456 8.61668C19.4372 8.41737 19.3157 8.17015 19.281 7.87501C19.1768 6.98959 18.9383 6.16043 18.5654 5.38751C18.1917 4.61529 17.7011 3.89932 17.0935 3.23959C16.9025 3.0139 16.807 2.76216 16.807 2.48439C16.807 2.20661 16.9112 1.97223 17.1195 1.78126C17.3279 1.57293 17.5751 1.46876 17.8612 1.46876C18.148 1.46876 18.3869 1.56425 18.5779 1.75522C19.3591 2.58855 19.9886 3.53022 20.4664 4.58022C20.9435 5.63091 21.2428 6.72918 21.3643 7.87501C21.399 8.15279 21.3164 8.39584 21.1164 8.60418C20.9171 8.81251 20.6699 8.91668 20.3747 8.91668ZM3.70806 18.2917C3.41292 18.2917 3.16535 18.1917 2.96535 17.9917C2.76605 17.7924 2.6664 17.5452 2.6664 17.25C2.6664 16.9549 2.76605 16.7077 2.96535 16.5083C3.16535 16.3083 3.41292 16.2083 3.70806 16.2083H4.74973V8.91668C4.74973 7.47571 5.18376 6.19515 6.05181 5.07501C6.91987 3.95557 8.04834 3.22223 9.43723 2.87501V2.14584C9.43723 1.71182 9.58931 1.34307 9.89348 1.03959C10.197 0.735427 10.5657 0.583344 10.9997 0.583344C11.4338 0.583344 11.8025 0.735427 12.106 1.03959C12.4101 1.34307 12.5622 1.71182 12.5622 2.14584V2.87501C13.9511 3.22223 15.0796 3.95557 15.9476 5.07501C16.8157 6.19515 17.2497 7.47571 17.2497 8.91668V16.2083H18.2914C18.5865 16.2083 18.8338 16.3083 19.0331 16.5083C19.2331 16.7077 19.3331 16.9549 19.3331 17.25C19.3331 17.5452 19.2331 17.7924 19.0331 17.9917C18.8338 18.1917 18.5865 18.2917 18.2914 18.2917H3.70806ZM10.9997 21.4167C10.4268 21.4167 9.93653 21.2129 9.5289 20.8052C9.12056 20.3969 8.9164 19.9063 8.9164 19.3333H13.0831C13.0831 19.9063 12.8792 20.3969 12.4716 20.8052C12.0633 21.2129 11.5726 21.4167 10.9997 21.4167Z" fill="#F2A1A1"/>
</svg>
