<svg width="122" height="22" viewBox="0 0 122 22" fill="none" xmlns="http://www.w3.org/2000/svg">
<path d="M5.0107 17.9C4.0807 18.02 3.2107 18.2 2.6407 18.38C2.2207 18.5 1.0507 19.16 1.1107 20.09C1.1407 20.21 1.5907 20.63 1.8307 20.54C2.7007 20.27 3.8407 20.21 5.3107 20.15C7.0807 20.09 8.6107 20.27 9.5107 20.69C9.9607 20.9 10.8907 20.06 10.8307 19.58C10.7707 19.01 10.0207 18.2 9.7507 18.08C9.3007 17.96 8.8807 17.87 8.2807 17.84C7.8907 17.81 7.5007 17.81 7.0807 17.81L7.2007 16.91C7.5607 13.94 7.5607 10.91 7.5607 6.65C7.5607 5.54 7.2007 4.43 6.6607 3.53C7.7407 3.47 8.2507 3.59 8.7607 3.62C9.3307 3.62 10.2307 2.72 10.2007 1.88C10.2007 1.52 9.3007 1.28 8.7007 1.28C7.9807 1.28 3.0907 1.58 2.3707 1.64C1.6807 1.7 0.840704 1.73 0.840704 2.09C0.840704 2.69 1.8907 3.59 2.4307 3.59C3.0907 3.62 3.5107 3.59 4.4107 3.59C4.7107 4.37 4.7707 5.15 4.7707 5.54C4.7707 10.94 4.9207 13.73 4.9207 15.89C4.9207 16.34 4.9807 17.12 5.0107 17.87V17.9ZM28.2424 3.71C28.3624 10.13 28.0624 19.46 27.9124 19.88C27.8824 19.97 27.8524 20.21 27.8524 20.3C27.8524 20.93 28.5124 21.29 28.8424 21.29C30.2824 21.29 30.7624 16.76 30.8824 16.34C31.0324 14.81 31.0624 14.81 31.0624 13.22L31.9324 12.86C32.4124 13.55 33.0124 15.14 34.4524 17.27C35.5624 18.86 37.6624 21.32 39.4024 21.32C39.8824 21.32 40.9324 20.81 40.9324 20.45C40.9324 20.18 40.8424 19.76 40.5124 19.73C38.9224 19.49 37.4824 17.06 36.7024 15.47C36.1024 14.24 35.2624 12.62 34.4224 11.33C35.6524 10.1 36.2824 8.9 37.6324 6.74C38.5024 5.33 39.1924 4.19 39.1924 2.48C39.1924 2.15 39.0424 1.7 38.5324 1.7C38.1724 1.7 37.3924 2.18 36.8824 3.65C36.1624 4.79 34.3624 7.67 32.5024 9.62C31.9324 9.98 31.5724 10.13 31.0624 10.34C31.0624 8.69 31.4224 3.5 30.5824 2.3C30.2524 1.91 29.9224 1.34 29.3224 1.34C28.3924 1.34 27.3124 1.49 26.5024 1.94C26.2624 2.09 26.0524 2.9 26.1424 3.23C26.3224 3.59 27.0124 3.71 27.6724 3.71H28.2424ZM55.2541 3.71C55.3741 10.13 55.0741 19.46 54.9241 19.88C54.8941 19.97 54.8641 20.21 54.8641 20.3C54.8641 20.93 55.5241 21.29 55.8541 21.29C57.2941 21.29 57.7741 16.76 57.8941 16.34C58.0441 14.81 58.0741 14.81 58.0741 13.22L58.9441 12.86C59.4241 13.55 60.0241 15.14 61.4641 17.27C62.5741 18.86 64.6741 21.32 66.4141 21.32C66.8941 21.32 67.9441 20.81 67.9441 20.45C67.9441 20.18 67.8541 19.76 67.5241 19.73C65.9341 19.49 64.4941 17.06 63.7141 15.47C63.1141 14.24 62.2741 12.62 61.4341 11.33C62.6641 10.1 63.2941 8.9 64.6441 6.74C65.5141 5.33 66.2041 4.19 66.2041 2.48C66.2041 2.15 66.0541 1.7 65.5441 1.7C65.1841 1.7 64.4041 2.18 63.8941 3.65C63.1741 4.79 61.3741 7.67 59.5141 9.62C58.9441 9.98 58.5841 10.13 58.0741 10.34C58.0741 8.69 58.4341 3.5 57.5941 2.3C57.2641 1.91 56.9341 1.34 56.3341 1.34C55.4041 1.34 54.3241 1.49 53.5141 1.94C53.2741 2.09 53.0641 2.9 53.1541 3.23C53.3341 3.59 54.0241 3.71 54.6841 3.71H55.2541ZM91.7459 1.94C90.8159 1.37 89.6459 1.1 88.2959 1.1C81.7259 1.1 78.3959 5.69 78.3959 11.45C78.3959 16.85 81.1559 20.93 86.5859 20.93C92.2259 20.93 95.7059 15.89 95.7059 10.43C95.7059 6.23 93.8459 3.14 91.7459 1.94ZM87.8159 3.44C90.9959 3.44 93.0659 6.98 93.0659 10.01C93.0659 13.34 90.8159 18.26 86.8859 18.26C82.7159 18.26 80.9459 14.51 80.9459 11.72C80.9459 8.15 83.6459 3.44 87.8159 3.44ZM109.818 8.84C110.898 11.84 113.478 17.3 115.638 19.7C116.598 20.78 117.798 21.38 119.118 21.14C120.048 20.96 121.068 20.27 121.188 16.22C121.338 11.45 121.338 9.02 121.308 4.13C121.308 2.36 121.368 0.71 120.798 0.71C120.168 0.71 118.818 2.15 118.728 3.56C118.488 6.8 118.458 11.57 118.338 16.7C118.308 17.54 118.218 18.11 118.128 18.11C117.888 18.11 117.588 17.63 117.378 17.33C114.258 12.65 112.818 8.39 110.148 4.28C109.428 3.2 106.968 1.1 105.798 1.79C104.958 2.21 107.088 4.88 107.178 5.33C107.388 10.7 107.328 15.29 107.328 18.17C107.328 19.73 107.088 21.32 107.538 21.32C108.918 21.32 109.908 19.34 109.908 15.92C109.908 14.6 109.818 11.27 109.818 9.8V8.84Z" fill="#D68D8D"/>
</svg>
