<svg width="150" height="150" viewBox="0 0 150 150" fill="none" xmlns="http://www.w3.org/2000/svg">
<rect width="150" height="150" rx="75" fill="#F2A1A1"/>
<path d="M46.1713 34.5736C46.8032 68.6336 45.2233 118.132 44.4334 120.36C44.2754 120.838 44.1174 122.111 44.1174 122.589C44.1174 125.931 47.5932 127.841 49.3311 127.841C56.9146 127.841 62.368 108.742 63 106.514C64.2639 102.057 64.5 94.9354 64.5 86.5C66.4177 84.75 67.0823 85.25 69 83.5C71.6027 86.6124 76.5321 96.5 82 106.514C88.3227 118.092 98.8366 127.841 108 127.841C110.528 127.841 116.585 125.371 118.5 124C120.415 122.629 125.495 113.693 121.5 114C108.5 115 106.109 109.116 98 99.5C89.891 89.8841 86 81 83 72C89.4776 65.4745 101.5 51.5 101.5 51.5C101.5 51.5 120 32.027 115 27.0931C111.155 23.299 104.5 27.0931 104.5 27.0931L92 40.5C92 40.5 85.2954 47.6547 75.5 58C72 62.5 68.1858 61.3859 65.5 62.5C65.5 53.7462 66.21 33.4595 61.7863 27.0931C60.0484 25.024 59.3105 22 56.1507 22C51.2531 22 41.2736 22.7958 37.0079 25.1832C35.744 25.979 34.638 30.2763 35.112 32.027C36.0599 33.9369 39.6937 34.5736 43.1695 34.5736H46.1713Z" fill="white"/>
</svg>
