<svg width="126" height="126" viewBox="0 0 126 126" fill="none" xmlns="http://www.w3.org/2000/svg">
<path d="M33.7812 59.4063C34.7188 60.3438 35.8125 60.8125 37.0625 60.8125C38.3125 60.8125 39.4062 60.3438 40.3438 59.4063L43.625 56.125L46.9062 59.4063C47.8438 60.3438 48.9375 60.8125 50.1875 60.8125C51.4375 60.8125 52.5313 60.3438 53.4688 59.4063C54.4063 58.4688 54.875 57.375 54.875 56.125C54.875 54.875 54.4063 53.7813 53.4688 52.8438L50.1875 49.5625L53.4688 46.2813C54.4063 45.3438 54.875 44.25 54.875 43C54.875 41.75 54.4063 40.6563 53.4688 39.7188C52.5313 38.7813 51.4375 38.3125 50.1875 38.3125C48.9375 38.3125 47.8438 38.7813 46.9062 39.7188L43.625 43L40.3438 39.7188C39.4062 38.7813 38.3125 38.3125 37.0625 38.3125C35.8125 38.3125 34.7188 38.7813 33.7812 39.7188C32.8438 40.6563 32.375 41.75 32.375 43C32.375 44.25 32.8438 45.3438 33.7812 46.2813L37.0625 49.5625L33.7812 52.8438C32.8438 53.7813 32.375 54.875 32.375 56.125C32.375 57.375 32.8438 58.4688 33.7812 59.4063ZM72.5312 59.4063C73.4688 60.3438 74.5625 60.8125 75.8125 60.8125C77.0625 60.8125 78.1562 60.3438 79.0938 59.4063L82.375 56.125L85.6562 59.4063C86.5938 60.3438 87.6875 60.8125 88.9375 60.8125C90.1875 60.8125 91.2812 60.3438 92.2187 59.4063C93.1562 58.4688 93.625 57.375 93.625 56.125C93.625 54.875 93.1562 53.7813 92.2187 52.8438L88.9375 49.5625L92.2187 46.2813C93.1562 45.3438 93.625 44.25 93.625 43C93.625 41.75 93.1562 40.6563 92.2187 39.7188C91.2812 38.7813 90.1875 38.3125 88.9375 38.3125C87.6875 38.3125 86.5938 38.7813 85.6562 39.7188L82.375 43L79.0938 39.7188C78.1562 38.7813 77.0625 38.3125 75.8125 38.3125C74.5625 38.3125 73.4688 38.7813 72.5312 39.7188C71.5938 40.6563 71.125 41.75 71.125 43C71.125 44.25 71.5938 45.3438 72.5312 46.2813L75.8125 49.5625L72.5312 52.8438C71.5938 53.7813 71.125 54.875 71.125 56.125C71.125 57.375 71.5938 58.4688 72.5312 59.4063ZM63 125.5C54.3542 125.5 46.2292 123.858 38.625 120.575C31.0208 117.296 24.4063 112.844 18.7813 107.219C13.1563 101.594 8.70417 94.9792 5.425 87.375C2.14167 79.7708 0.5 71.6459 0.5 63C0.5 54.3542 2.14167 46.2292 5.425 38.625C8.70417 31.0209 13.1563 24.4063 18.7813 18.7813C24.4063 13.1563 31.0208 8.7021 38.625 5.41877C46.2292 2.1396 54.3542 0.500015 63 0.500015C71.6458 0.500015 79.7708 2.1396 87.375 5.41877C94.9792 8.7021 101.594 13.1563 107.219 18.7813C112.844 24.4063 117.296 31.0209 120.575 38.625C123.858 46.2292 125.5 54.3542 125.5 63C125.5 71.6459 123.858 79.7708 120.575 87.375C117.296 94.9792 112.844 101.594 107.219 107.219C101.594 112.844 94.9792 117.296 87.375 120.575C79.7708 123.858 71.6458 125.5 63 125.5ZM36.4375 94.25H89.5625C91.0208 94.25 92.0625 93.7542 92.6875 92.7625C93.3125 91.775 93.2604 90.6563 92.5312 89.4063C89.5104 84.3021 85.4479 80.1875 80.3438 77.0625C75.2396 73.9375 69.4583 72.375 63 72.375C56.5417 72.375 50.7604 73.9375 45.6563 77.0625C40.5521 80.1875 36.4896 84.3021 33.4688 89.4063C32.7396 90.6563 32.6875 91.775 33.3125 92.7625C33.9375 93.7542 34.9792 94.25 36.4375 94.25Z" fill="#D68D8D"/>
</svg>
